PathFileType	4	(X/Y/Z)	s10c0402.trc
DataRate	CameraRate	NumFrames	NumMarkers	Units	OrigDataRate	OrigDataStartFrame	OrigNumFrames
200	200	4	49	mm	200	1750	2000
Frame#	Time	racr			lacr			c7			jug			rlel			rdr			llel			ldr			s2			lic			ric			lasi			rasi			rpsi			lpsi			rgt			lgt			rth1			rth2			rth3			rth4			rlfc			rmfc			rsh1			rsh2			rsh3			rsh4			rlmal			rmmal			rcal			rtoe			rmt5			lth1			lth2			lth4			lth3			llfc			lmfc			llmal			lcal			lmt5			lsh1			lsh2			lsh3			lsh4			ltoe			SBIKE			LBIKE			RBIKE			
		X1	Y1	Z1	X2	Y2	Z2	X3	Y3	Z3	X4	Y4	Z4	X5	Y5	Z5	X6	Y6	Z6	X7	Y7	Z7	X8	Y8	Z8	X9	Y9	Z9	X10	Y10	Z10	X11	Y11	Z11	X12	Y12	Z12	X13	Y13	Z13	X14	Y14	Z14	X15	Y15	Z15	X16	Y16	Z16	X17	Y17	Z17	X18	Y18	Z18	X19	Y19	Z19	X20	Y20	Z20	X21	Y21	Z21	X22	Y22	Z22	X23	Y23	Z23	X24	Y24	Z24	X25	Y25	Z25	X26	Y26	Z26	X27	Y27	Z27	X28	Y28	Z28	X29	Y29	Z29	X30	Y30	Z30	X31	Y31	Z31	X32	Y32	Z32	X33	Y33	Z33	X34	Y34	Z34	X35	Y35	Z35	X36	Y36	Z36	X37	Y37	Z37	X38	Y38	Z38	X39	Y39	Z39	X40	Y40	Z40	X41	Y41	Z41	X42	Y42	Z42	X43	Y43	Z43	X44	Y44	Z44	X45	Y45	Z45	X46	Y46	Z46	X47	Y47	Z47	X48	Y48	Z48	X49	Y49	Z49	
1750	8.7500	686.698247	1339.817452	-97.302921	684.665820	1304.656061	-384.935477	669.225143	1340.317596	-239.566185	655.797243	1193.423723	-230.592826	574.405767	1107.598418	26.999244	627.206834	906.614038	-38.495255	536.002986	1090.659704	-525.686665	618.207442	908.865074	-436.448076	130.197949	1161.165967	-206.367935	275.759943	1157.394277	-368.639624	323.267343	1156.789626	-72.140910	291.019780	1071.025639	-338.900469	313.233788	1063.213119	-85.130588	186.420177	1206.592590	-155.974959	177.672008	1218.067901	-265.203198	208.918024	1050.524722	-25.025970	163.678754	1041.374959	-401.167339	271.587339	904.947319	-15.537024	325.764418	837.968507	-38.693085	340.315746	754.356364	-46.419455	356.479180	855.787824	-50.364172	375.311800	651.449116	-70.461741	358.311955	648.430927	-184.903388	275.951006	597.408098	-28.547914	221.793444	527.797744	-39.832607	142.454769	493.660272	-37.675675	239.158023	508.439186	-67.949645	54.230093	428.973545	-47.231589	75.219798	424.998203	-129.660336	20.084308	473.589230	-93.961541	67.620459	233.360812	-105.005244	23.342567	303.317168	-40.275909	245.541868	935.690661	-417.969923	324.675928	900.474988	-407.859998	346.726325	928.569499	-399.254544	376.193308	828.669916	-404.835048	467.542608	752.556832	-383.711021	469.672618	744.921383	-265.537716	249.447154	428.312690	-390.973661	185.707708	407.107595	-347.567977	338.648680	315.748105	-405.043782	387.922073	657.789322	-415.540508	367.681602	572.917442	-405.779022	304.809347	509.773288	-406.004567	392.548202	561.609752	-379.288346	424.271647	323.743077	-346.667646	-180.948854	823.271036	-210.857666	-103.933298	80.452482	-418.276334	-103.959986	80.571518	-18.357895	
1751	8.7550	687.682423	1339.924892	-96.763710	684.067055	1304.807596	-383.701286	669.148369	1340.302564	-239.190406	655.184258	1193.008498	-227.944180	575.732254	1107.533907	27.324384	627.251231	906.695232	-38.413630	535.776133	1090.927078	-524.759186	618.191614	908.879682	-436.346164	130.553610	1161.026573	-207.508187	277.244676	1156.776967	-369.478503	321.466224	1157.938113	-72.163495	292.259026	1070.594927	-339.449087	312.154525	1063.791969	-86.047757	185.579645	1206.463120	-157.866326	178.235229	1217.849914	-267.366587	208.513919	1050.836380	-27.423938	163.721412	1040.992507	-402.350634	272.872796	906.850682	-16.590916	328.908111	840.994704	-38.708143	344.464383	757.425190	-47.608054	358.911971	858.932046	-50.232085	382.264666	655.951167	-70.488526	365.615704	654.386156	-185.542483	283.397285	602.215880	-29.182481	227.862378	533.692028	-40.481666	147.885941	501.052091	-38.065156	245.678868	514.552927	-68.311200	58.182181	438.248229	-47.280674	79.102999	433.332015	-130.047577	25.353747	483.566470	-94.312334	66.857221	242.277530	-104.866932	24.209453	313.298140	-40.328378	243.950105	933.319705	-419.280450	321.619060	895.208975	-409.124807	344.776080	922.408560	-400.089773	370.411395	821.470757	-405.635866	458.830862	741.015445	-384.417876	462.112077	733.327613	-267.011730	245.811971	414.365689	-390.414669	182.117311	392.924798	-347.986378	337.231270	304.851400	-405.131631	380.806131	644.735926	-416.128417	361.771215	559.828253	-405.422262	300.444286	495.195354	-404.772413	386.511812	549.250844	-378.494363	422.731875	314.869087	-346.695159	-180.890154	823.281582	-210.842523	-103.628121	80.532388	-418.223132	-103.941831	80.559385	-18.368310	
1752	8.7600	688.531576	1340.102232	-96.238774	683.391749	1305.030927	-382.613736	669.001705	1340.366295	-238.767913	654.379091	1192.659749	-225.235694	576.952169	1107.609446	27.850866	626.706948	906.689871	-39.191944	535.577858	1091.293461	-523.828698	618.110981	908.858499	-436.232951	130.779223	1160.802327	-209.034127	278.882158	1155.911792	-370.070126	319.804606	1158.773990	-72.372877	293.546136	1070.070462	-340.265636	311.020943	1064.213965	-87.077483	184.823669	1206.600622	-160.404734	178.678922	1217.537604	-269.670838	208.117105	1051.103259	-29.205245	164.029017	1040.134170	-403.589518	274.170261	908.596131	-17.630946	331.591656	843.651056	-38.943073	348.590994	760.399236	-47.974668	362.689487	863.237506	-48.599372	389.120118	660.419381	-70.465343	372.091434	659.835221	-186.295671	290.395205	607.105576	-29.663305	233.853405	539.398105	-40.951298	153.311446	508.159521	-38.405734	250.161681	519.858477	-69.509273	62.152942	447.380819	-47.254787	82.669896	441.932665	-130.694685	30.483742	493.433566	-94.521727	66.872265	251.348794	-104.788919	25.644999	323.336252	-40.310803	242.447729	930.569312	-420.394393	318.547610	889.526060	-409.923168	342.765413	915.835628	-400.888856	364.374818	814.006180	-406.238860	449.794719	729.083624	-384.474280	454.379704	721.598908	-268.481371	241.806521	400.890599	-390.135787	178.277887	378.648499	-347.564613	335.208911	293.950175	-405.154087	373.256457	631.610124	-416.455099	355.442559	546.551586	-404.734166	295.204127	480.940206	-404.188330	379.986381	536.790690	-377.372719	420.518035	306.139065	-346.870144	-180.929646	823.232470	-210.988403	-103.944840	80.659572	-418.548713	-103.928612	80.565683	-18.355194	
1753	8.7650	689.389969	1340.376468	-95.608255	682.728286	1305.366993	-381.620680	668.729200	1340.391557	-237.511880	655.155666	1192.075544	-221.759124	578.368369	1107.479835	28.126437	626.683655	906.750355	-39.287869	535.371227	1091.522894	-522.741726	617.998036	908.791468	-436.104036	130.730889	1160.851904	-212.116812	280.664852	1154.691346	-370.675869	318.244696	1159.224422	-72.756420	294.941390	1069.040505	-341.157882	307.659186	1062.951613	-93.450912	184.192975	1206.409776	-162.936313	179.267452	1217.282789	-272.241909	207.835466	1051.145159	-30.987576	164.173631	1039.070388	-404.714414	275.340124	910.211602	-18.567506	334.129496	846.189418	-38.971300	352.475848	763.212061	-48.120779	364.738176	865.905316	-48.287003	395.825597	664.811841	-70.254389	378.256165	664.919157	-186.958741	297.363741	611.789129	-30.152495	239.779555	545.515670	-41.424186	158.132474	515.313360	-39.111019	255.443141	525.616222	-70.254856	66.196623	456.919423	-47.207364	86.338363	450.676413	-130.817533	36.069619	503.493120	-94.850874	67.659353	260.670443	-104.881564	27.716882	333.446521	-40.393610	241.011109	927.603471	-421.506294	315.400089	883.594748	-410.735243	340.581141	908.811880	-401.691023	358.223506	806.258474	-406.761424	440.149371	717.155354	-384.527276	445.642685	709.504612	-270.195747	237.449638	387.813952	-389.750518	174.038698	364.801280	-347.199375	332.617322	283.172367	-405.117906	365.263377	618.318944	-416.258494	348.589853	533.225994	-403.733553	289.063557	467.237797	-404.155221	372.981816	524.206796	-375.953240	417.729707	297.031061	-346.890056	-180.898270	823.246499	-210.953176	-103.940705	80.484932	-418.354409	-103.924502	80.544940	-18.368872	
